<svg fill="none" height="28" viewBox="0 0 28 28" width="28" xmlns="http://www.w3.org/2000/svg"><path d="m21.6179 14.0524c0-.2615-.1076-.523-.2999-.7076l-5.0372-5.02949c-.2154-.21533-.4461-.31531-.6845-.31531-.5537 0-.9459.39221-.9459.91516 0 .27686.1153.50757.2922.68445l1.7227 1.73799 2.0226 1.8534-1.7381-.0999h-9.06699c-.58447 0-.98437.3922-.98437.9613s.3999.9613.98437.9613h9.06699l1.7458-.1-2.0303 1.8534-1.7227 1.738c-.1769.1692-.2922.3999-.2922.6845 0 .5152.3922.9074.9459.9074.2384 0 .4691-.0922.6768-.2922l5.0449-5.0449c.1923-.1846.2999-.4461.2999-.7075z" fill="#000"/></svg>