<svg fill="none" height="20" viewBox="0 0 20 20" width="20" xmlns="http://www.w3.org/2000/svg"><path d="m1.99219 10.3516c0 .2448.09375.4583.28125.6406l5.14844 5.1406c.18229.1771.38802.2656.61718.2656.23959 0 .44011-.0781.60156-.2343.16146-.1563.24219-.3516.24219-.586 0-.1198-.02343-.2317-.07031-.3359s-.10938-.1953-.1875-.2734l-1.75-1.7657-2.90625-2.6562-.28125.5 2.71094.1562h9.49216c.2604 0 .4688-.0781.625-.2343.1615-.1615.2422-.3672.2422-.6172 0-.2552-.0807-.46098-.2422-.61722-.1562-.16146-.3646-.24219-.625-.24219h-9.49216l-2.71094.16406.28125.50785 2.90625-2.6641 1.75-1.77344c.07812-.07812.14062-.16666.1875-.26562.04688-.10417.07031-.21875.07031-.34375 0-.23438-.08073-.42969-.24219-.58594-.16145-.15625-.36197-.23437-.60156-.23437-.11458 0-.22396.02343-.32812.07031-.10417.04687-.20313.11719-.29688.21093l-5.14062 5.13282c-.1875.18229-.28125.39586-.28125.64066z" fill="#fff"/></svg>