<svg fill="none" height="33" viewBox="0 0 247 33" width="247" xmlns="http://www.w3.org/2000/svg"><path clip-rule="evenodd" d="m17.9106 23.72h-13.49471v4.7394h13.35611c2.7263 0 4.6845-.7446 5.9593-2.0471 1.2732-1.3009 1.8169-3.1095 1.8169-5.1399 0-1.7221-.3809-3.5388-1.6253-4.9261-1.2504-1.3939-3.3191-2.2957-6.5668-2.2957h-5.4759c-1.3199 0-2.08998-.3257-2.53175-.7602-.44085-.4335-.60906-1.0289-.60906-1.6874 0-.7534.21535-1.3531.63495-1.76542.41989-.4126 1.08986-.6823 2.08996-.6823h12.3164v-4.73939h-12.1777c-2.65728 0-4.57207.72737-5.8208 2.00385-1.24711 1.27482-1.7822 3.04867-1.7822 5.04456 0 1.6705.3724 3.4518 1.59003 4.8171 1.22394 1.3723 3.24924 2.266 6.42877 2.266h5.4412c1.3911 0 2.2142.3354 2.6904.7931.4739.4555.6584 1.0845.6584 1.7932 0 .7856-.2313 1.4205-.6817 1.8599-.451.4399-1.1653.7264-2.2165.7264zm5.5406-18.9792v4.08887h-11.9915c-2.11407 0-3.04982 1.14369-3.04982 2.77263 0 1.2328.5479 2.4136 2.48132 2.7045-1.92969-.2921-2.47672-1.4719-2.47672-2.7038 0-1.62894.93575-2.77263 3.04982-2.77263h11.9915v-4.08957zm-11.4324 13.4817c-.7411 0-1.4147-.0494-2.02639-.1419.61049.0921 1.28259.1412 2.02179.1412h5.4412c.3915 0 .7444.0257 1.062.0739-.3164-.0478-.6678-.0732-1.0574-.0732zm-7.278 9.9113v.0007h13.0312c5.3372 0 7.4513-2.9112 7.4513-6.8621 0-2.9601-1.1554-6.0546-5.7849-6.7518 4.6256.6986 5.7803 3.7919 5.7803 6.7511 0 3.9509-2.1141 6.8621-7.4513 6.8621zm34.249-23.71791c-3.4581 0-6.1995.98965-8.0719 3.0294-1.868 2.03497-2.8235 5.06371-2.8235 9.04431 0 3.963.9467 6.9666 2.8115 8.9804 1.8689 2.0183 4.6106 2.9894 8.0839 2.9894h3.1885c3.4734 0 6.215-.9711 8.084-2.9894 1.8648-2.0138 2.8114-5.0174 2.8114-8.9804 0-3.9806-.9555-7.00934-2.8235-9.04431-1.8724-2.03975-4.6138-3.0294-8.0719-3.0294zm3.1885 4.73939c2.2009 0 3.7016.55761 4.6646 1.69582.9741 1.1512 1.4568 2.9625 1.4568 5.6039 0 2.6594-.483 4.4608-1.4557 5.5983-.962 1.125-2.462 1.6667-4.6657 1.6667h-3.1885c-2.2217 0-3.7307-.5421-4.6968-1.6633-.9764-1.1331-1.4592-2.9253-1.4592-5.5671 0-2.658.4911-4.478 1.4736-5.6336.9718-1.14309 2.4815-1.70072 4.6824-1.70072zm19.2272-4.73939h-4.7393v15.64341c0 2.392.6203 4.5037 2.0794 6.0176 1.4614 1.5164 3.7152 2.3825 6.8751 2.3825h9.6478v-4.7394h-9.4052c-1.79 0-2.8883-.4308-3.5412-1.0722-.6516-.6401-.9166-1.5459-.9166-2.6231zm2.0997 23.56911c.65.0984 1.3543.1495 2.1155.1495h9.3229v-4.0896h-.0046v4.0889h-9.3229c-.7594 0-1.4622-.0509-2.1109-.1488zm1.0024-4.0342c-2.5981-.3938-3.427-1.9787-3.427-3.9261v-15.2839h-.0046v15.2832c0 1.9486.8298 3.5342 3.4316 3.9268zm22.9659-19.53491c-3.4581 0-6.1995.98965-8.0719 3.0294-1.868 2.03497-2.8234 5.06371-2.8234 9.04431 0 3.963.9466 6.9666 2.8114 8.9804 1.8689 2.0183 4.6106 2.9894 8.0839 2.9894h3.1885c3.4734 0 6.2151-.9711 8.084-2.9894 1.865-2.0138 2.811-5.0174 2.811-8.9804 0-3.9806-.955-7.00934-2.8231-9.04431-1.8724-2.03975-4.6138-3.0294-8.0719-3.0294zm3.1885 4.73939c2.2009 0 3.7016.55761 4.6647 1.69582.974 1.1512 1.4567 2.9625 1.4567 5.6039 0 2.6594-.4829 4.4608-1.4556 5.5983-.9621 1.125-2.4621 1.6667-4.6658 1.6667h-3.1885c-2.2217 0-3.7307-.5421-4.6968-1.6633-.9764-1.1331-1.4592-2.9253-1.4592-5.5671 0-2.658.4911-4.478 1.4736-5.6336.9718-1.14309 2.4815-1.70072 4.6824-1.70072zm21.228-.37111c.169.11917.32.31389.463.63008l6.822 14.92735c.494 1.3543 1.134 2.4939 2.095 3.2932.971.8078 2.237 1.2405 3.925 1.2405 1.863 0 3.298-.5296 4.268-1.5037.968-.9733 1.429-2.3474 1.429-3.9505v-19.00521h-4.774v18.83191c0 .3262-.105.5653-.269.7235-.165.1592-.425.2686-.793.2686-.318 0-.554-.0853-.738-.2168-.187-.1332-.337-.3268-.459-.5692l-6.82-14.92016c-.493-1.35281-1.123-2.49253-2.076-3.29229-.963-.80871-2.22-1.24145-3.908-1.24145-1.88 0-3.316.52922-4.281 1.49935-.965.96943-1.416 2.33515-1.416 3.92019v19.03986h4.739v-18.83192c0-.35319.102-.59831.263-.75588.161-.15814.424-.27084.833-.27084.316 0 .531.0669.697.18341zm12.103 19.68063c.372.0566.771.0856 1.202.0856 3.604 0 5.372-2.0448 5.372-5.1293v-18.6803h-.005v18.6796c0 3.0845-1.767 5.1293-5.372 5.1293-.428 0-.826-.0288-1.197-.0849zm.78-3.9207c-.594-.0904-.966-.4677-1.207-.9497l-6.828-14.93732c-.843-2.32027-2.054-3.88074-4.497-4.2486 2.44.36912 3.65 1.92909 4.493 4.24791l6.827 14.93731c.242.4833.615.8613 1.212.9504zm-13.272-16.24686c-.097-.01481-.201-.02208-.312-.02208-.936 0-1.421.51985-1.421 1.35163v18.50701h-4.085v.0007h4.089v-18.50702c0-.83177.486-1.35163 1.421-1.35163.11 0 .212.00705.308.02139zm-67.0534-3.39536c5.3595.80656 8.3012 4.64533 8.3012 11.58772 0 7.8326-3.743 11.6449-10.5705 11.6449h-3.1885c-.8176 0-1.591-.0547-2.319-.1644.7267.1093 1.4985.1637 2.3144.1637h3.1885c6.8275 0 10.5705-3.8123 10.5705-11.6449 0-6.9404-2.94-10.77896-8.2966-11.58702zm-.6994 4.0371c-.4841-.07291-1.007-.10861-1.5699-.10861h-3.1885c-4.5054 0-6.4809 2.28743-6.4809 7.65923 0 4.6508 1.4737 6.9332 4.8567 7.4433-3.3863-.5087-4.8613-2.7911-4.8613-7.444 0-5.3718 1.9755-7.65923 6.4809-7.65923h3.1885c.5647 0 1.0891.03594 1.5745.10931zm49.1831-4.0371c5.3595.80656 8.3017 4.64533 8.3017 11.58772 0 7.8326-3.7435 11.6449-10.571 11.6449h-3.1885c-.8176 0-1.591-.0547-2.319-.1644.7267.1093 1.4985.1637 2.3144.1637h3.1885c6.8275 0 10.5706-3.8123 10.5706-11.6449 0-6.9404-2.9401-10.77896-8.2967-11.58702zm-.6991 4.03714c-.4842-.07293-1.0071-.10865-1.5702-.10865h-3.1885c-4.5054 0-6.4809 2.28743-6.4809 7.65923 0 4.6508 1.4737 6.9332 4.8568 7.4433-3.3864-.5087-4.8614-2.7911-4.8614-7.444 0-5.3718 1.9755-7.65923 6.4809-7.65923h3.1885c.5648 0 1.0893.03595 1.5748.10935z" fill="#d0df86" fill-rule="evenodd"/><g fill="#8f8f8f"><path d="m136.791 29.0399c.77 0 1.377-.6071 1.377-1.3771s-.607-1.3771-1.377-1.3771-1.377.6071-1.377 1.3771.607 1.3771 1.377 1.3771z"/><path d="m146.646 29.1287c3.376 0 5.819-1.8509 5.819-4.4718v-.0148c0-2.1618-1.17-3.3612-4.235-4.1016l-2.325-.5479c-2.028-.4886-2.858-1.2734-2.858-2.5024v-.0148c0-1.5695 1.392-2.6505 3.48-2.6505 2.147 0 3.509 1.1698 3.761 2.9615l.015.1036h1.881l-.015-.1629c-.252-2.6504-2.355-4.5606-5.642-4.5606-3.213 0-5.478 1.8213-5.478 4.383v.0148c0 2.1322 1.391 3.4056 4.294 4.1016l2.324.5626c2.059.4887 2.799 1.2142 2.799 2.5469v.0148c0 1.614-1.481 2.6801-3.806 2.6801-2.324 0-3.761-1.155-4.072-2.9318l-.029-.1333h-1.955l.015.1333c.296 2.7245 2.532 4.5902 6.027 4.5902z"/><path d="m161.046 29.1287c4.19 0 7.019-3.0799 7.019-7.9811v-.0296c0-4.9012-2.843-7.9515-7.019-7.9515-4.191 0-7.019 3.0651-7.019 7.9515v.0296c0 4.8864 2.814 7.9663 7.019 7.9811zm.015-1.7473c-3.036-.0148-5.02-2.3247-5.02-6.2338v-.0296c0-3.8795 1.999-6.2042 5.005-6.2042s5.02 2.3099 5.02 6.2042v.0296c0 3.8943-1.999 6.2338-5.005 6.2338z"/><path d="m171.167 28.8474h1.955v-13.7559h3.302v-1.6436h-3.317v-2.1471c0-1.70281.814-2.45798 2.31-2.45798.399 0 .784.02961 1.11.08884v-1.61398c-.34-.05923-.888-.11846-1.436-.11846-2.577 0-3.924 1.28823-3.924 4.07198v2.1767h-2.147v1.6436h2.147z"/><path d="m183.361 29.1287c.474 0 .977-.0592 1.288-.1185v-1.5991c-.222.0296-.533.074-.888.074-1.437 0-2.162-.5775-2.162-2.2803v-10.1133h3.05v-1.6436h-3.05v-4.16086h-2.014v4.16086h-2.265v1.6436h2.265v10.1429c0 2.6949 1.244 3.8943 3.776 3.8943z"/><path d="m190.062 28.8474h2.073l3.82-12.7787h.044l3.835 12.7787h2.073l4.368-15.3995h-1.969l-3.45 13.208h-.044l-3.835-13.208h-1.985l-3.835 13.208h-.044l-3.45-13.208h-1.984z"/><path d="m212.221 29.1287c2.28 0 4.309-1.2586 5.153-3.0947h.059v2.8134h1.955v-10.5428c0-3.1539-2.207-5.1381-5.731-5.1381-3.48 0-5.671 1.8953-5.967 4.5458l-.015.1777h1.895l.03-.148c.326-1.7473 1.792-2.8282 4.028-2.8282 2.398 0 3.805 1.3474 3.805 3.5685v1.3327l-4.798.2961c-3.538.2369-5.523 1.8213-5.523 4.4422v.0296c0 2.7245 2.073 4.5458 5.109 4.5458zm-3.11-4.5458v-.0296c0-1.6881 1.348-2.7394 3.761-2.8874l4.561-.311v1.7028c0 2.458-2.117 4.3534-4.812 4.3534-2.088 0-3.51-1.1402-3.51-2.8282z"/><path d="m222.371 28.8474h1.955v-9.5359c0-2.6061 1.392-4.2645 3.583-4.2645.667 0 1.215.1037 1.466.2073v-1.9101c-.237-.074-.696-.1777-1.214-.1777-1.866 0-3.228 1.1698-3.776 3.0503h-.059v-2.7689h-1.955z"/><path d="m236.535 29.1287c3.331 0 5.789-1.9101 6.323-4.5458l.029-.1481h-1.94l-.029.1333c-.504 1.6732-2.073 2.8133-4.339 2.8133-3.035 0-5.005-2.0878-5.064-5.76h11.565v-.7699c0-4.6051-2.592-7.685-6.708-7.685s-6.841 3.1836-6.841 8.0107v.0148c0 4.8716 2.68 7.9367 7.004 7.9367zm-.178-14.2149c2.636 0 4.531 1.7916 4.753 5.1529h-9.565c.237-3.2724 2.191-5.1529 4.812-5.1529z"/></g></svg>